# xmcd
#
# Track frame offsets:
# 150
# 14475
# 32116
# 52064
# 69426
# 93657
# 107820
# 125935
# 141676
# 155290
# 177039
# 192265
# 223096
# 243702
# 263423
# 270686
#
# Disc length: 3904 seconds
#
#
# Revision: 0
# Processed by: cddbd v1.5.1PL0 Copyright (c) Steve Scherf et al.
# Submitted via: FreeRIP 2.91 
#
DISCID=f80f3e10
DTITLE=Various Artist - CrabbFest Live 2004
DYEAR=2005
DGENRE=Gospel
TTITLE0=Crabb Family/Greater Is He
TTITLE1=Crabb Family/Promised Land
TTITLE2=Mike Bowling/Heat Of The Battle
TTITLE3=Hoskins Family/Places To Go, People To See
TTITLE4=Crabb Family with Gerald Crabb/Lamb, Lion and King
TTITLE5=McRaes/If It Had Not Been The Lord
TTITLE6=Karen Harding/Holdin' On To Faith
TTITLE7=Mike Bowling with Hope/Movin' On
TTITLE8=Crabb Family/Sacrifice Of Praise
TTITLE9=Mercy's Mark/His Response
TTITLE10=LordSong/Lord Of The Dance
TTITLE11=Crabb Family/He Came Looking For Me
TTITLE12=Freemans/Sea Walker
TTITLE13=Crabb Family/Forever
TTITLE14=Mike Bowling, Kelly Bowling and Jason Crabb/Call Me Gone
TTITLE15=Crabb Family with Gerald Crabb/The Reason That I'm Standing
EXTD=
EXTT0=
EXTT1=
EXTT2=
EXTT3=
EXTT4=
EXTT5=
EXTT6=
EXTT7=
EXTT8=
EXTT9=
EXTT10=
EXTT11=
EXTT12=
EXTT13=
EXTT14=
EXTT15=
PLAYORDER=
